<svg xmlns="http://www.w3.org/2000/svg" fill="none" viewBox="-0.5 -0.5 50 50" height="50" width="50"><g id="half-star-1--reward-rating-rate-social-star-media-favorite-like-stars-half"><path id="Union" fill="#000000" fill-rule="evenodd" d="M26.313 1.75a1.75 1.75 0 0 0 -1.76 -1.75 3.64 3.64 0 0 0 -3.293 2.135L15.701 13.881a1.68 1.68 0 0 0 -0.025 0.056 0.07 0.07 0 0 1 -0.056 0.042l-0.021 0.004 -12.39 1.785 -0.032 0.004a3.78 3.78 0 0 0 -1.995 6.479L10.115 31.43l0.007 0.007a0.28 0.28 0 0 1 0.077 0.238l-2.233 12.925 0 0.007a3.71 3.71 0 0 0 5.355 3.938l11.197 -6.087a0.315 0.315 0 0 1 0.14 -0.035 1.75 1.75 0 0 0 1.69 -1.75L26.313 1.75Z" clip-rule="evenodd" stroke-width="1"></path></g></svg>